<?xml version="1.0" encoding="UTF-8"?>
<svg id="Layer_1" data-name="Layer 1" xmlns="http://www.w3.org/2000/svg" viewBox="0 0 39 43">
  <defs>
    <style>
      .cls-1 {
        fill: #fff;
        fill-rule: evenodd;
        stroke-width: 0px;
      }
    </style>
  </defs>
  <path class="cls-1" d="M13.05,40.13c-3.72-1.05-7.62-1.58-11.4-2.07-.81-.1-1.57.47-1.63,1.27-.12.8.47,1.53,1.22,1.64,3.67.47,7.45.97,11,1.98.76.22,1.57-.23,1.8-1.01.23-.78-.23-1.59-.99-1.81Z"/>
  <path class="cls-1" d="M24.34,25.22c-5.99-6.15-12.74-11.52-18.62-17.84-.52-.59-1.45-.62-2.04-.07-.58.55-.64,1.48-.06,2.07,5.88,6.34,12.63,11.72,18.62,17.89.58.58,1.51.58,2.09.02.52-.57.58-1.49,0-2.07Z"/>
  <path class="cls-1" d="M35.57,1.54c.17,3.52.35,7.05.52,10.57,0,.81.7,1.43,1.51,1.39.81-.04,1.4-.73,1.4-1.53-.17-3.53-.35-7.06-.52-10.58-.06-.81-.76-1.43-1.57-1.38-.76.04-1.4.73-1.34,1.54Z"/>
</svg>