<?xml version="1.0" encoding="UTF-8"?>
<svg id="Layer_1" data-name="Layer 1" xmlns="http://www.w3.org/2000/svg" viewBox="0 0 25.5 29.76">
  <defs>
    <style>
      .cls-1 {
        fill: #fff;
        fill-rule: evenodd;
        stroke-width: 0px;
      }
    </style>
  </defs>
  <path class="cls-1" d="M16.45.14c.43.24.64.74.51,1.21l-2.82,10.35h10.3c.42,0,.81.25.97.64.17.39.09.84-.2,1.15l-14.87,15.94c-.33.36-.87.44-1.29.2-.43-.24-.64-.74-.51-1.21l2.82-10.35H1.06c-.42,0-.81-.25-.97-.64-.17-.39-.09-.84.2-1.15L15.17.34c.33-.36.87-.44,1.29-.2h0Z"/>
</svg>