<svg width="32" height="32" viewBox="0 0 32 32" fill="none" xmlns="http://www.w3.org/2000/svg">
<rect width="32" height="32" rx="6" fill="white"/>
<path d="M8.56066 6.43934C7.97487 5.85355 7.02513 5.85355 6.43934 6.43934C5.85355 7.02513 5.85355 7.97487 6.43934 8.56066L13.8787 16L6.43934 23.4393C5.85355 24.0251 5.85355 24.9749 6.43934 25.5607C7.02513 26.1464 7.97487 26.1464 8.56066 25.5607L16 18.1213L23.4393 25.5607C24.0251 26.1464 24.9749 26.1464 25.5607 25.5607C26.1464 24.9749 26.1464 24.0251 25.5607 23.4393L18.1213 16L25.5607 8.56066C26.1464 7.97487 26.1464 7.02513 25.5607 6.43934C24.9749 5.85355 24.0251 5.85355 23.4393 6.43934L16 13.8787L8.56066 6.43934Z" fill="#262626"/>
</svg>
