<svg width="34" height="29" viewBox="0 0 34 29" fill="none" xmlns="http://www.w3.org/2000/svg">
<path d="M27.7626 29.0014C28.4029 29.0014 28.9294 28.4892 28.9294 27.863C28.9294 27.2227 28.4029 26.6962 27.7626 26.6962H26.0265V17.2618C26.0265 12.0679 22.0279 8.05503 16.834 8.05503C11.6543 8.05503 7.65569 12.0679 7.65569 17.2618V26.6962H5.89118C5.26507 26.6962 4.76702 27.2227 4.76702 27.863C4.76702 28.4892 5.26507 29.0014 5.89118 29.0014H27.7626ZM18.0293 17.3045V26.6962H15.6671V17.3045C15.6671 16.65 16.1794 16.1091 16.834 16.1091C17.4885 16.1091 18.0293 16.65 18.0293 17.3045ZM3.94168 18.2863C4.6105 18.2863 5.19391 17.7314 5.19391 17.0768C5.19391 16.3937 4.6105 15.8388 3.94168 15.8388H1.20954C0.554966 15.8388 0 16.4079 0 17.0768C0 17.7172 0.554966 18.2863 1.20954 18.2863H3.94168ZM6.85882 8.82345C7.32841 9.29303 8.11105 9.30727 8.58064 8.82345C9.06445 8.33964 9.05022 7.57121 8.58064 7.10164L6.6596 5.16636C6.20425 4.68255 5.40736 4.68255 4.92355 5.16636C4.45396 5.65018 4.45396 6.40437 4.92355 6.88818L6.85882 8.82345ZM15.6102 4.1845C15.6102 4.8533 16.1652 5.4225 16.834 5.4225C17.517 5.4225 18.072 4.8533 18.072 4.1845V1.45236C18.072 0.783552 17.5028 0.214355 16.834 0.214355C16.1652 0.214355 15.6102 0.783552 15.6102 1.45236V4.1845ZM25.0731 7.10164C24.6035 7.57121 24.5893 8.33964 25.0731 8.82345C25.5712 9.30727 26.3253 9.29303 26.7949 8.82345L28.7444 6.88818C29.214 6.40437 29.214 5.65018 28.7444 5.16636C28.2463 4.68255 27.4922 4.68255 27.0226 5.16636L25.0731 7.10164ZM32.4443 18.2863C33.113 18.2863 33.6822 17.7172 33.6822 17.0768C33.6822 16.4079 33.113 15.8388 32.4443 15.8388H29.7121C29.0575 15.8388 28.4882 16.3937 28.4882 17.0768C28.4882 17.7314 29.0575 18.2863 29.7121 18.2863H32.4443Z" fill="#9500FF"/>
</svg>
