<svg width="34" height="27" viewBox="0 0 34 27" fill="none" xmlns="http://www.w3.org/2000/svg">
<path d="M5.67329 22.0951L6.07096 23.704C6.57466 25.7957 7.67486 26.8683 9.86199 26.8683H24.138C26.3384 26.8683 27.4253 25.8225 27.9423 23.704L28.34 22.0951H5.67329ZM5.23587 20.2582H28.7906L31.2826 9.9342L30.1957 9.30404L24.085 13.8091C23.6343 14.1309 23.3294 14.0102 23.0775 13.6482L17.3247 4.85264L16.6885 4.82582L10.8826 13.6884C10.6573 14.037 10.3922 14.1443 9.94152 13.8224L3.9501 9.39789L2.67759 9.73309L5.23587 20.2582ZM3.16803 12.6157C4.91774 12.6157 6.3228 11.1811 6.3228 9.39789C6.3228 7.65488 4.91774 6.20683 3.16803 6.20683C1.41833 6.20683 0 7.64147 0 9.39789C0 11.1811 1.43157 12.6157 3.16803 12.6157ZM17.0067 7.03811C18.7431 7.03811 20.1614 5.60348 20.1614 3.83364C20.1614 2.09062 18.7431 0.642578 17.0067 0.642578C15.2437 0.642578 13.8386 2.07722 13.8386 3.83364C13.8386 5.60348 15.2569 7.03811 17.0067 7.03811ZM30.8319 12.6157C32.5684 12.6157 34 11.1811 34 9.39789C34 7.64147 32.5817 6.20683 30.8319 6.20683C29.0956 6.20683 27.6772 7.65488 27.6772 9.39789C27.6772 11.1811 29.0956 12.6157 30.8319 12.6157Z" fill="#9500FF"/>
</svg>
