<svg width="28" height="33" viewBox="0 0 28 33" fill="none" xmlns="http://www.w3.org/2000/svg">
<path d="M14.1794 32.3165C19.1884 32.3165 23.2296 28.2753 23.2296 23.2806C23.2296 18.2716 19.1884 14.2304 14.1794 14.2304C9.18471 14.2304 5.14341 18.2716 5.14341 23.2806C5.14341 28.2753 9.18471 32.3165 14.1794 32.3165ZM11.6038 27.9337C11.0631 28.3321 10.4939 27.9195 10.7073 27.2934L11.7319 24.2339L9.11356 22.3698C8.61552 21.9999 8.77204 21.3026 9.45507 21.3026L12.671 21.331L13.6529 18.2574C13.8521 17.6313 14.5351 17.6313 14.7344 18.2574L15.7162 21.331L18.9322 21.3026C19.6152 21.3026 19.7575 22.0141 19.2737 22.3556L16.6554 24.2339L17.68 27.2934C17.8934 27.9195 17.3242 28.3321 16.7835 27.9337L14.1936 26.0411L11.6038 27.9337ZM5.51339 16.5072C6.90793 14.7426 8.82896 13.405 11.0346 12.7504L4.58845 1.16727L0.845982 6.87347C0.589844 7.24344 0.575614 7.65612 0.803293 8.02608L5.51339 16.5072ZM10.9919 7.89801H17.3811L21.7212 0.213867H6.65179L10.9919 7.89801ZM17.3384 12.7504C19.5584 13.405 21.4651 14.7426 22.8596 16.5072L27.5839 8.02608C27.7974 7.65612 27.7832 7.24344 27.5271 6.87347L23.7846 1.16727L17.3384 12.7504Z" fill="#9500FF"/>
</svg>
